<svg width="13" height="24" viewBox="0 0 13 24" fill="none" xmlns="http://www.w3.org/2000/svg">
<path d="M9.84445 11.0888C8.94831 10.591 7.99857 10.2233 7.05648 9.83272C6.51267 9.6106 5.99184 9.34252 5.53228 8.97488C4.62849 8.24725 4.79699 7.07538 5.86163 6.60817C6.16034 6.47796 6.47437 6.432 6.79606 6.41668C8.0292 6.34775 9.19341 6.57753 10.3117 7.11368C10.8631 7.38175 11.047 7.2975 11.2384 6.72306C11.4376 6.11031 11.6061 5.48991 11.7822 4.87717C11.9048 4.46357 11.7516 4.18784 11.361 4.01934C10.6487 3.70531 9.91338 3.47553 9.1398 3.36064C8.13643 3.19979 8.13643 3.19979 8.12877 2.18877C8.12111 0.756487 8.12111 0.756487 6.69649 0.764146C6.48969 0.764146 6.28289 0.756487 6.07609 0.764146C5.40973 0.787124 5.29484 0.902013 5.27953 1.56837C5.27187 1.86708 5.27953 2.17345 5.27953 2.47216C5.27187 3.3683 5.27187 3.35298 4.41403 3.65935C2.34603 4.40996 1.06693 5.81926 0.929062 8.07875C0.806513 10.0778 1.84817 11.4258 3.48726 12.4062C4.49828 13.0113 5.61653 13.3713 6.68883 13.8462C7.11009 14.03 7.50837 14.2445 7.85304 14.5355C8.88704 15.3857 8.69556 16.8027 7.47008 17.3388C6.81138 17.6222 6.12205 17.6988 5.41739 17.6069C4.32212 17.469 3.2728 17.1856 2.29241 16.6724C1.71797 16.3737 1.54946 16.4503 1.35032 17.0784C1.18182 17.6222 1.02863 18.166 0.883107 18.7098C0.683966 19.4451 0.752899 19.6213 1.45755 19.9583C2.34603 20.3872 3.30344 20.6093 4.27616 20.7702C5.03443 20.8927 5.06507 20.9233 5.07273 21.7122C5.07273 22.0722 5.08039 22.4322 5.08039 22.7845C5.08805 23.2364 5.3025 23.4969 5.76972 23.5045C6.29821 23.5122 6.8267 23.5122 7.35519 23.5045C7.78411 23.4969 8.00623 23.2594 8.01388 22.8228C8.01388 22.3326 8.03686 21.8424 8.02154 21.3523C7.99857 20.8544 8.21302 20.6016 8.69556 20.4714C9.79849 20.1727 10.7406 19.5753 11.4682 18.6945C13.4596 16.2435 12.6937 12.6666 9.84445 11.0888Z" fill="white"/>
</svg>
