<svg width="52" height="37" viewBox="0 0 52 37" fill="none" xmlns="http://www.w3.org/2000/svg">
<path d="M17.2965 15.3529L22.5867 21.6581H17.8436L12.5535 15.3529H17.2965ZM28.6311 28.87L23.3466 22.5648H18.6035L23.8936 28.87H28.6311ZM16.5368 14.4463L11.2467 8.14241H6.50915L11.7937 14.4463H16.5368ZM34.5537 28.87L29.269 22.5648H24.5259L29.816 28.87H34.5537ZM18.4815 15.3529L23.7662 21.6581H28.5092L23.2191 15.3529H18.4815ZM38.3388 7.94645C38.5352 7.94645 38.7262 7.84444 38.8322 7.6631L41.1142 3.70983C41.2681 3.43883 41.1779 3.09202 40.9073 2.93561C40.6365 2.77829 40.2863 2.87214 40.1325 3.14313L37.8505 7.0964C37.6259 7.48198 37.9169 7.94645 38.3388 7.94645ZM30.6332 5.88016C30.9462 5.88016 31.1957 5.62628 31.1957 5.31346V0.749296C31.1957 -0.00112277 30.0653 0.00681093 30.0653 0.749296V5.31346C30.0653 5.62628 30.32 5.88016 30.6332 5.88016ZM22.4287 7.66299C22.5877 7.93693 22.9448 8.02567 23.2034 7.87028C23.4741 7.71399 23.5695 7.36717 23.4104 7.09618L21.1284 3.14291C20.7586 2.4971 19.7754 3.06221 20.152 3.7096L22.4287 7.66299ZM22.4594 14.4463L17.1693 8.14241H12.4317L17.7162 14.4463H22.4594ZM24.6534 29.7766L29.9435 36.0815H34.6811L29.3965 29.7766H24.6534ZM48.2204 30.2322L44.2666 27.9507C43.996 27.7932 43.6511 27.8862 43.4918 28.1582C43.3379 28.4292 43.4281 28.7748 43.6988 28.9323L47.6524 31.214C47.7827 31.2889 47.9375 31.3092 48.0827 31.2703C48.2279 31.2314 48.3518 31.1365 48.4272 31.0064C48.5866 30.7356 48.4909 30.3885 48.2204 30.2322ZM43.9853 13.5894C44.0809 13.5894 44.1764 13.5646 44.2665 13.5134L48.2202 11.2309C48.4909 11.0744 48.5864 10.7276 48.4272 10.4568C48.2733 10.1858 47.9231 10.093 47.6524 10.2493L43.6988 12.532C43.2019 12.819 43.4047 13.5894 43.9853 13.5894ZM30.6332 9.16484C27.4965 9.16484 24.4886 10.4451 22.31 12.7003L22.2392 12.7737L37.0067 30.3822L37.0912 30.3252C40.3038 28.1612 42.1988 24.6072 42.1988 20.7322C42.1988 14.3546 37.0111 9.16484 30.6332 9.16484ZM50.6137 20.1654H46.0498C45.7366 20.1654 45.482 20.4194 45.482 20.7322C45.482 21.0451 45.7368 21.2988 46.0498 21.2988H50.6137C50.9269 21.2988 51.1816 21.0451 51.1816 20.7322C51.1813 20.5818 51.1214 20.4376 51.0149 20.3314C50.9085 20.2251 50.7642 20.1654 50.6137 20.1654ZM5.32419 8.14241H0.581055L5.87116 14.4463H10.6087L5.32419 8.14241ZM11.374 15.3529H6.63099L11.9211 21.6581H16.6587L11.374 15.3529ZM17.4186 22.5648H12.6809L17.971 28.87H22.7087L17.4186 22.5648ZM30.5758 29.7766L35.8659 36.0815H40.6035L35.319 29.7766H30.5758ZM18.731 29.7766L24.0155 36.0815H28.7586L23.4685 29.7766H18.731Z" fill="white"/>
</svg>
