<svg width="45" height="45" viewBox="0 0 45 45" fill="none" xmlns="http://www.w3.org/2000/svg">
<path d="M28.7376 15.7229L23.2688 29.473C23.0495 30.0243 23.3187 30.6489 23.8699 30.8681C24.4212 31.0874 25.0458 30.8182 25.265 30.267L30.7338 16.5169C30.953 15.9656 30.6839 15.341 30.1327 15.1218C29.5815 14.9025 28.9568 15.1717 28.7376 15.7229ZM31.1835 21.2762C31.1835 21.8695 31.6644 22.3504 32.2577 22.3504H36.2853L32.4142 31.1565C32.1755 31.6996 32.4222 32.3334 32.9654 32.5722C33.5085 32.8109 34.1423 32.5642 34.381 32.0211L38.9143 21.7086C39.2263 20.9986 38.7064 20.2021 37.9309 20.2021H32.2577C31.6645 20.202 31.1835 20.6829 31.1835 21.2762ZM23.8383 18.8771H23.601C23.6157 16.3806 23.6238 13.6775 23.5929 13.308C23.5274 12.5216 23.0574 11.8811 22.3955 11.6761C21.7401 11.473 21.0405 11.73 20.5243 12.3635C19.9274 13.0957 17.0021 18.3805 16.4218 19.4324C16.3316 19.596 16.2856 19.7802 16.2883 19.967C16.2911 20.1538 16.3425 20.3366 16.4374 20.4974C16.5324 20.6583 16.6676 20.7916 16.8298 20.8842C16.992 20.9768 17.1756 21.0255 17.3624 21.0255H21.438C21.4329 21.7199 21.4276 22.3864 21.4224 22.9857C21.4172 23.5789 21.894 24.064 22.4873 24.0691H22.4968C23.0856 24.0691 23.5657 23.5942 23.5708 23.0042C23.5739 22.6385 23.58 21.9174 23.5867 21.0255H23.8383C24.4315 21.0255 24.9125 20.5445 24.9125 19.9512C24.9125 19.358 24.4315 18.8771 23.8383 18.8771ZM21.4521 18.8771H19.1873C20.0452 17.3414 20.8852 15.865 21.4659 14.8808C21.4668 15.9041 21.461 17.3633 21.4521 18.8771ZM15.1145 21.8975C14.036 21.9111 12.8894 21.9197 11.9653 21.9207C12.5322 21.1652 13.34 20.0654 14.4541 18.4736C15.0952 17.5576 15.5129 16.6933 15.6958 15.9044C15.7243 15.7472 15.7683 15.43 15.7735 15.2707C15.7735 13.2512 14.1305 11.6083 12.1111 11.6083C10.365 11.6083 8.85361 12.8505 8.51743 14.5618C8.40304 15.144 8.78228 15.7086 9.36443 15.823C9.94657 15.9372 10.5112 15.5581 10.6256 14.976C10.7643 14.2695 11.3891 13.7567 12.1111 13.7567C12.926 13.7567 13.5926 14.4039 13.6239 15.2113L13.5912 15.4675C13.4634 15.9768 13.1617 16.5734 12.6939 17.2418C11.0907 19.5325 10.134 20.785 9.62009 21.458C8.98355 22.2915 8.72007 22.6364 8.90457 23.2365C9.01243 23.5872 9.27823 23.8563 9.63401 23.975C9.7771 24.0227 9.92311 24.0716 11.8851 24.0716C12.6546 24.0716 13.7039 24.064 15.1415 24.046C15.7347 24.0385 16.2096 23.5516 16.2021 22.9584C16.1947 22.365 15.7065 21.8923 15.1145 21.8975Z" fill="white"/>
</svg>
