<svg width="45" height="45" viewBox="0 0 45 45" fill="none" xmlns="http://www.w3.org/2000/svg">
<g id="Frame">
<g id="Group">
<path id="Vector" d="M28.7368 15.7229L23.268 29.473C23.0488 30.0243 23.318 30.6489 23.8692 30.8681C24.4205 31.0874 25.0451 30.8182 25.2643 30.267L30.7331 16.5169C30.9523 15.9656 30.6832 15.341 30.132 15.1218C29.5807 14.9025 28.9561 15.1717 28.7368 15.7229ZM31.1828 21.2762C31.1828 21.8695 31.6637 22.3504 32.257 22.3504H36.2846L32.4135 31.1565C32.1748 31.6996 32.4215 32.3334 32.9646 32.5722C33.5077 32.8109 34.1415 32.5642 34.3803 32.0211L38.9136 21.7086C39.2256 20.9986 38.7057 20.2021 37.9302 20.2021H32.2569C31.6638 20.202 31.1828 20.6829 31.1828 21.2762ZM23.8375 18.8771H23.6003C23.615 16.3806 23.623 13.6775 23.5922 13.308C23.5266 12.5216 23.0566 11.8811 22.3947 11.6761C21.7394 11.473 21.0398 11.73 20.5235 12.3635C19.9267 13.0957 17.0014 18.3805 16.4211 19.4324C16.3309 19.596 16.2849 19.7802 16.2876 19.967C16.2903 20.1538 16.3417 20.3366 16.4367 20.4974C16.5316 20.6583 16.6669 20.7916 16.8291 20.8842C16.9913 20.9768 17.1749 21.0255 17.3616 21.0255H21.4372C21.4322 21.7199 21.4268 22.3864 21.4217 22.9857C21.4165 23.5789 21.8933 24.064 22.4866 24.0691H22.4961C23.0849 24.0691 23.5649 23.5942 23.5701 23.0042C23.5732 22.6385 23.5792 21.9174 23.5859 21.0255H23.8375C24.4308 21.0255 24.9118 20.5445 24.9118 19.9512C24.9118 19.358 24.4308 18.8771 23.8375 18.8771ZM21.4514 18.8771H19.1866C20.0444 17.3414 20.8845 15.865 21.4652 14.8808C21.4661 15.9041 21.4603 17.3633 21.4514 18.8771ZM15.1138 21.8975C14.0353 21.9111 12.8887 21.9197 11.9646 21.9207C12.5314 21.1652 13.3392 20.0654 14.4533 18.4736C15.0944 17.5576 15.5122 16.6933 15.6951 15.9044C15.7236 15.7472 15.7676 15.43 15.7727 15.2707C15.7727 13.2512 14.1298 11.6083 12.1103 11.6083C10.3643 11.6083 8.85288 12.8505 8.51669 14.5618C8.40231 15.144 8.78155 15.7086 9.36369 15.823C9.94583 15.9372 10.5104 15.5581 10.6248 14.976C10.7636 14.2695 11.3884 13.7567 12.1103 13.7567C12.9253 13.7567 13.5918 14.4039 13.6232 15.2113L13.5904 15.4675C13.4627 15.9768 13.1609 16.5734 12.6932 17.2418C11.0899 19.5325 10.1333 20.785 9.61936 21.458C8.98282 22.2915 8.71933 22.6364 8.90384 23.2365C9.01169 23.5872 9.2775 23.8563 9.63328 23.975C9.77637 24.0227 9.92237 24.0716 11.8843 24.0716C12.6539 24.0716 13.7032 24.064 15.1408 24.046C15.734 24.0385 16.2089 23.5516 16.2014 22.9584C16.194 22.365 15.7058 21.8923 15.1138 21.8975Z" fill="white"/>
</g>
</g>
</svg>
