<svg width="33" height="32" viewBox="0 0 33 32" fill="none" xmlns="http://www.w3.org/2000/svg">
<path d="M24.4247 11.3265C23.8574 11.5741 23.2478 11.7414 22.608 11.8167C23.2611 11.4314 23.7626 10.8212 23.9987 10.0942C23.3779 10.4568 22.6986 10.7124 21.9903 10.8497C21.4133 10.2446 20.5913 9.86646 19.6815 9.86646C17.9347 9.86646 16.5185 11.2605 16.5185 12.98C16.5185 13.224 16.5465 13.4616 16.6004 13.6896C13.9717 13.5597 11.6411 12.3202 10.081 10.4364C9.80883 10.8963 9.65285 11.4312 9.65285 12.0017C9.65285 13.0819 10.2113 14.0349 11.0599 14.5933C10.5577 14.5778 10.0664 14.4443 9.62726 14.2038C9.62708 14.2168 9.62708 14.2299 9.62708 14.243C9.62708 15.7515 10.7173 17.01 12.1642 17.296C11.6985 17.4207 11.2099 17.439 10.7359 17.3494C11.1383 18.5864 12.3065 19.4865 13.6905 19.5117C12.608 20.3468 11.2442 20.8446 9.76234 20.8446C9.50699 20.8446 9.25527 20.8298 9.00781 20.8011C10.4076 21.6845 12.0701 22.1999 13.8563 22.1999C19.6742 22.1999 22.8555 17.4555 22.8555 13.3411C22.8555 13.206 22.8525 13.0717 22.8464 12.9382C23.4656 12.4976 24.0001 11.9518 24.4247 11.3265Z" fill="white"/>
<circle cx="16.716" cy="16.0332" r="15.6332" stroke="white" stroke-width="0.646201"/>
</svg>
