<svg width="48" height="57" viewBox="0 0 48 57" fill="none" xmlns="http://www.w3.org/2000/svg">
<path d="M12.3411 26.826C12.3411 33.4484 17.7096 38.8171 24.3322 38.8171C30.9548 38.8171 36.3232 33.4484 36.3232 26.826C36.3232 20.2035 30.9547 14.8349 24.3322 14.8349C17.7129 14.8424 12.3485 20.2067 12.3411 26.826ZM24.3322 27.5837C22.3423 27.5949 20.6562 26.1212 20.4016 24.1474C20.1471 22.1744 21.4038 20.3203 23.3314 19.8265V18.8128C23.3314 18.3537 23.7034 17.9818 24.1624 17.9818C24.6215 17.9818 24.9934 18.3537 24.9934 18.8128V19.7759C26.879 20.095 28.2552 21.7342 28.2432 23.6472C28.2432 23.865 28.1567 24.0739 28.0027 24.2279C27.8487 24.3819 27.6398 24.4684 27.422 24.4684C27.2042 24.4684 26.9953 24.3819 26.8413 24.2279C26.6872 24.0739 26.6007 23.865 26.6007 23.6472C26.5993 22.3918 25.581 21.3753 24.3257 21.3767C23.0704 21.3781 22.0538 22.3969 22.0557 23.6523C22.0572 24.9071 23.076 25.9235 24.3313 25.9217C26.3665 25.9332 28.0569 27.4952 28.2289 29.5235C28.401 31.5514 26.9977 33.3757 24.9934 33.7299V34.7205C24.9934 35.1795 24.6215 35.5515 24.1624 35.5515C23.7034 35.5515 23.3314 35.1795 23.3314 34.7205V33.679C21.5948 33.2203 20.3812 31.6548 20.3695 29.8588C20.3747 29.6392 20.4656 29.4305 20.6227 29.2771C20.7798 29.1237 20.9907 29.0378 21.2103 29.0378C21.4298 29.0378 21.6407 29.1237 21.7978 29.2771C21.9549 29.4305 22.0458 29.6392 22.051 29.8588C22.0538 31.0194 22.9284 31.9928 24.0822 32.1194C24.1252 32.1126 24.1686 32.109 24.2121 32.1088C24.2746 32.1088 24.3367 32.1161 24.398 32.1301C25.6445 32.0995 26.6336 31.0709 26.6156 29.8244C26.5975 28.5775 25.5787 27.5781 24.3322 27.5837ZM43.5764 44.5343C43.57 44.5378 43.5635 44.541 43.5569 44.5441L35.8429 48.1886C35.9258 48.6156 35.9619 49.0501 35.9504 49.4851C35.9446 49.7014 35.8546 49.9069 35.6996 50.0579C35.5446 50.2089 35.3368 50.2934 35.1204 50.2934H35.0966L23.8068 49.9826C23.5894 49.9723 23.3846 49.8772 23.2366 49.7177C23.0885 49.5581 23.0089 49.3469 23.0149 49.1293C23.0208 48.9117 23.1118 48.7052 23.2684 48.554C23.425 48.4028 23.6346 48.319 23.8522 48.3206L34.23 48.6063C33.8859 46.5951 32.171 45.1056 30.1315 45.0462L23.2638 44.8575C21.9076 44.8186 20.5775 44.475 19.3721 43.8522L18.6733 43.4905C15.2413 41.7023 11.1058 41.9351 7.89622 44.0975L7.62127 54.0885L8.80141 53.4564C9.97437 52.8257 11.3466 52.6755 12.6282 53.0377L24.2835 56.3092C26.53 56.7695 28.8643 56.5085 30.9537 55.5637L47.1012 45.1186C46.6523 44.6589 46.0684 44.3544 45.4345 44.2493C44.8006 44.1442 44.1497 44.2441 43.5764 44.5343ZM0.0366211 55.8238L0.445948 40.9589L6.31577 41.1207L5.90621 55.9855L0.0366211 55.8238ZM25.1122 10.384V1.36176C25.1122 0.902693 24.7402 0.530762 24.2812 0.530762C23.8221 0.530762 23.4502 0.902693 23.4502 1.36176V10.384C23.4502 10.8431 23.8221 11.215 24.2812 11.215C24.7402 11.215 25.1122 10.8431 25.1122 10.384ZM32.235 10.384V6.11033C32.235 5.65126 31.8631 5.27933 31.404 5.27933C30.9449 5.27933 30.573 5.65126 30.573 6.11033V10.384C30.573 10.8431 30.9449 11.215 31.404 11.215C31.8631 11.215 32.235 10.8431 32.235 10.384ZM17.9893 10.384V6.11033C17.9893 5.65126 17.6174 5.27933 17.1583 5.27933C16.6992 5.27933 16.3273 5.65126 16.3273 6.11033V10.384C16.3273 10.8431 16.6992 11.215 17.1583 11.215C17.6174 11.215 17.9893 10.8431 17.9893 10.384Z" fill="#1D3376"/>
</svg>
