<svg width="56" height="57" viewBox="0 0 56 57" fill="none" xmlns="http://www.w3.org/2000/svg">
<g id="Frame">
<g id="Group">
<path id="Vector" fill-rule="evenodd" clip-rule="evenodd" d="M54.1101 22.5791C49.7066 21.6893 45.3033 22.1352 40.8999 23.917C40.7699 23.9695 40.665 24.07 40.607 24.1976C40.549 24.3253 40.5423 24.4704 40.5883 24.6028L46.8081 42.5635C46.8858 42.7878 47.0876 42.9314 47.3249 42.9314H54.1101V22.5791ZM16.0744 2.14258C18.4549 2.14258 20.3847 4.04866 20.3847 6.4C20.3847 8.75134 18.4549 10.6574 16.0744 10.6574C13.6938 10.6574 11.764 8.75134 11.764 6.4C11.764 4.04866 13.6938 2.14258 16.0744 2.14258ZM27.9999 5.28437C30.3804 5.28437 32.3102 7.19045 32.3102 9.5418C32.3102 11.8931 30.3804 13.7992 27.9999 13.7992C25.6193 13.7992 23.6895 11.8931 23.6895 9.5418C23.6895 7.19045 25.6193 5.28437 27.9999 5.28437ZM39.9255 2.14258C42.306 2.14258 44.2358 4.04866 44.2358 6.4C44.2358 8.75134 42.306 10.6574 39.9255 10.6574C37.5449 10.6574 35.6151 8.75134 35.6151 6.4C35.6151 4.04866 37.5449 2.14258 39.9255 2.14258ZM20.6551 33.1163C20.6551 32.2713 20.95 31.5842 21.566 31.0051L26.0651 26.7747C28.6847 24.3118 31.1046 24.8028 34.1586 25.7695C35.9385 26.3329 37.67 26.8809 39.6856 27.0096L44.6015 41.205C44.0083 41.5002 43.3988 41.7931 42.7357 42.0637C41.6208 42.5187 40.4413 42.2825 39.5891 41.4311L29.7818 31.6298C29.6341 31.4829 29.4359 31.3978 29.2277 31.3921C29.0195 31.3863 28.8169 31.4602 28.6613 31.5987C28.6609 31.5984 28.3335 31.8706 28.3042 31.8942C27.2997 32.705 25.616 34.0639 25.616 36.3119C25.616 37.5983 24.9919 38.6642 24.0422 39.4329C23.1281 40.1729 21.9181 40.6447 20.6551 40.7886V33.1163ZM16.1254 27.5553C16.9188 27.7571 17.69 27.8962 18.4596 27.9774C19.7811 28.1167 21.0847 28.0837 22.4762 27.9027L20.4445 29.8131C19.5114 30.6904 19.0145 31.8352 19.0145 33.1163V41.6559C19.0145 41.8735 19.1009 42.0821 19.2548 42.236C19.4086 42.3898 19.6172 42.4762 19.8348 42.4762C21.7422 42.4762 23.6687 41.8397 25.0741 40.7021C26.3911 39.636 27.2567 38.139 27.2567 36.3121C27.2567 34.95 28.3722 33.9503 29.1521 33.3135L38.4354 42.5911C38.8806 43.036 39.3922 43.3736 39.9422 43.5981C40.3165 43.9893 40.6898 44.3813 41.0632 44.7733C41.7258 45.4661 41.766 46.5671 41.076 47.2571C40.4021 47.931 39.2821 47.931 38.6083 47.2571C36.8083 45.4573 35.0394 43.6151 33.2595 41.7912C33.1851 41.7123 33.0957 41.6489 32.9965 41.6048C32.8974 41.5607 32.7904 41.5368 32.6819 41.5345C32.5734 41.5321 32.4656 41.5513 32.3646 41.5911C32.2636 41.6308 32.1715 41.6902 32.0937 41.7659C32.016 41.8416 31.954 41.9319 31.9115 42.0318C31.8689 42.1316 31.8467 42.2389 31.846 42.3474C31.8454 42.4559 31.8663 42.5635 31.9076 42.6638C31.9489 42.7642 32.0098 42.8553 32.0867 42.9319L36.9696 47.9383C37.6474 48.6161 37.6471 49.7283 36.9694 50.4059C36.2919 51.0835 35.1795 51.0836 34.5019 50.406C32.6251 48.5292 30.7816 46.6143 28.9261 44.7131C28.7748 44.5576 28.5679 44.4685 28.351 44.4655C28.1341 44.4625 27.9248 44.5458 27.7693 44.6971C27.6138 44.8484 27.5247 45.0552 27.5218 45.2722C27.5188 45.4891 27.6021 45.6983 27.7533 45.8539L32.6363 50.8603C33.3102 51.5343 33.3105 52.6538 32.6364 53.3278C31.9851 53.9791 30.7578 53.9169 30.1687 53.3279C28.1308 51.29 26.129 49.2209 24.1145 47.1566C24.0402 47.0773 23.9508 47.0136 23.8515 46.9692C23.7523 46.9249 23.6452 46.9007 23.5365 46.8982C23.4279 46.8957 23.3198 46.9149 23.2186 46.9546C23.1174 46.9944 23.0251 47.0539 22.9472 47.1297C22.8693 47.2055 22.8073 47.296 22.7647 47.3961C22.7222 47.4961 22.7 47.6036 22.6995 47.7124C22.699 47.8211 22.7202 47.9288 22.7618 48.0292C22.8034 48.1296 22.8646 48.2208 22.9418 48.2973L27.8246 53.3037C28.322 53.8012 28.3171 54.6227 27.8161 55.1145C27.3294 55.5895 26.5286 55.6064 26.0428 55.1207C26.0234 55.1401 18.0079 46.8907 17.2773 46.1421C15.4247 44.2442 13.7744 42.5595 11.3544 41.3319L16.1254 27.5553ZM20.8425 22.6854H35.1571V19.2555C35.1571 16.963 33.8731 14.9561 31.9889 13.9177C30.9302 14.8652 29.5285 15.4397 27.9998 15.4397C26.471 15.4397 25.0693 14.8651 24.0106 13.9177C22.1264 14.9561 20.8424 16.963 20.8424 19.2555V22.6854H20.8425ZM36.7978 19.5436V19.2555C36.7978 16.7 35.5437 14.426 33.6203 13.0171C34.1798 12.0778 34.9791 11.3043 35.9363 10.776C37.0328 11.758 38.4535 12.3 39.9254 12.298C41.3973 12.3 42.818 11.758 43.9145 10.776C45.7987 11.8143 47.0827 13.8213 47.0827 16.1137V19.5436H36.7978ZM8.91699 19.5436V16.1137C8.91699 13.8212 10.2009 11.8143 12.0853 10.776C13.1439 11.7235 14.5456 12.298 16.0744 12.298C17.6031 12.298 19.0048 11.7235 20.0634 10.776C21.0206 11.3043 21.8199 12.0778 22.3794 13.0171C20.4561 14.426 19.202 16.7 19.202 19.2555V19.5436H8.91699ZM1.88965 22.5791V42.9315H8.67495C8.91218 42.9315 9.11409 42.7878 9.19163 42.5636L15.4116 24.603C15.4576 24.4705 15.4509 24.3254 15.3929 24.1977C15.3349 24.0701 15.23 23.9696 15.1 23.9171C10.6965 22.1353 6.29309 21.6893 1.88965 22.5791Z" fill="#1D3376"/>
</g>
</g>
</svg>
