<svg width="56" height="49" viewBox="0 0 56 49" fill="none" xmlns="http://www.w3.org/2000/svg">
<g id="Group">
<path id="Vector" fill-rule="evenodd" clip-rule="evenodd" d="M53.9958 35.8442L35.9896 47.0266C34.2445 48.0986 32.3365 48.3668 30.3064 47.823L14.5483 43.5998C14.2949 43.5321 14.0251 43.5677 13.7979 43.6987L6.09044 48.1493L0 37.6089L14.3273 29.3121C16.34 28.147 18.5154 27.1704 20.8132 27.9149C21.4938 28.1359 22.3023 28.4152 23.1574 28.7111C26.0135 29.6965 29.5677 30.9234 33.2149 31.7238C33.785 31.8482 34.2735 32.206 34.5877 32.7284C34.7624 33.0128 34.8773 33.3299 34.9253 33.6602C34.9733 33.9906 34.9535 34.3272 34.8669 34.6496C34.5411 35.8578 33.3254 36.6199 32.098 36.3842C32.0806 36.3802 19.7776 33.0895 19.7776 33.0895C19.254 32.9476 18.7131 33.2611 18.5677 33.7864C18.4282 34.3128 18.7423 34.8537 19.2657 34.9945L31.4232 38.2508C34.1456 38.982 36.3967 39.1089 39.1772 37.4876L48.3299 32.1582C52.1923 29.907 54.8624 30.4015 55.7116 31.8132C56.3574 32.8939 55.9735 34.6244 53.9958 35.8442ZM37.1137 11.3605L27.288 23.5096L28.3135 14.7923C28.3136 14.7896 28.3137 14.7863 28.3143 14.7847L28.3146 14.7834C28.3136 14.7829 28.3125 14.7826 28.3114 14.7823H21.357L30.648 2.88277L30.1591 11.3605H37.1137ZM29.2362 0.0166016C21.9649 0.0166016 16.0549 5.92788 16.0549 13.1938C16.0549 20.4603 21.965 26.3715 29.2362 26.3715C36.5015 26.3715 42.4116 20.4603 42.4116 13.1938C42.4116 5.92777 36.5015 0.0166016 29.2362 0.0166016Z" fill="#1D3376"/>
</g>
</svg>
