<svg width="56" height="57" viewBox="0 0 56 57" fill="none" xmlns="http://www.w3.org/2000/svg">
<g id="Frame">
<g id="Group">
<path id="Vector" d="M50.6565 42.4893L44.0532 49.0926C43.7965 49.3493 43.4932 49.5359 43.1432 49.6526L38.1965 51.3093C37.9632 51.3793 37.7065 51.4259 37.4498 51.4259C36.8432 51.4259 36.2365 51.1926 35.7932 50.7493C35.4865 50.4447 35.2715 50.0602 35.1725 49.6394C35.0735 49.2187 35.0945 48.7787 35.2332 48.3693L36.8898 43.4226C37.0065 43.0726 37.1932 42.7693 37.4498 42.5126L44.0532 35.9093C44.4965 35.4659 45.0798 35.2326 45.7098 35.2326C46.3398 35.2326 46.9232 35.4893 47.3665 35.9093L50.6565 39.2226C51.5665 40.1326 51.5665 41.6026 50.6565 42.5126V42.4893ZM40.8798 33.2726L37.2632 30.8459L26.8565 37.0993C26.48 37.3234 26.0476 37.4358 25.6097 37.4234C25.1717 37.411 24.7464 37.2743 24.3832 37.0293L18.2465 32.9459L4.6665 36.6559V39.7593C4.6665 43.6093 7.8165 46.7593 11.6665 46.7593H30.3332C31.6165 46.7593 32.6665 45.7093 32.6665 44.4259C32.6645 41.9333 33.4608 39.5056 34.9389 37.4985C36.4169 35.4914 38.4989 34.0104 40.8798 33.2726ZM18.0598 28.1859L4.6665 31.8259V11.7593C4.6665 7.90928 7.8165 4.75928 11.6665 4.75928H39.6665C43.5165 4.75928 46.6665 7.90928 46.6665 11.7593V30.4259C46.6665 30.7526 46.5965 31.0793 46.4565 31.3593L38.6165 26.1559C38.2554 25.9057 37.8294 25.7659 37.3902 25.7535C36.9511 25.7411 36.5178 25.8566 36.1432 26.0859L25.7365 32.3393L19.9498 28.4893C19.6762 28.3034 19.3651 28.1799 19.0386 28.1275C18.712 28.0751 18.3779 28.095 18.0598 28.1859ZM17.4998 21.0926C19.4365 21.0926 20.9998 19.5293 20.9998 17.5926C20.9998 15.6559 19.4365 14.0926 17.4998 14.0926C15.5632 14.0926 13.9998 15.6559 13.9998 17.5926C13.9998 19.5293 15.5632 21.0926 17.4998 21.0926Z" fill="#1D3376"/>
</g>
</g>
</svg>
