<svg width="56" height="57" viewBox="0 0 56 57" fill="none" xmlns="http://www.w3.org/2000/svg">
<g id="Frame">
<g id="Group">
<path id="Vector" fill-rule="evenodd" clip-rule="evenodd" d="M34.5118 17.1846C38.7928 18.7184 42.3949 21.714 44.6835 25.6436C46.9721 29.5731 47.8002 34.1844 47.0218 38.6647C46.2434 43.145 43.9086 47.2067 40.4288 50.1341C36.9489 53.0615 32.5475 54.6667 28.0001 54.6667C23.4526 54.6667 19.0512 53.0615 15.5714 50.1341C12.0915 47.2067 9.75668 43.145 8.97832 38.6647C8.19996 34.1844 9.02803 29.5731 11.3166 25.6436C13.6052 21.714 17.2074 18.7184 21.4883 17.1846V27.0848C19.2194 28.4994 17.4728 30.6143 16.5127 33.1098C15.5526 35.6052 15.4313 38.3454 16.1669 40.916C16.9026 43.4865 18.4554 45.7476 20.5903 47.3573C22.7253 48.9669 25.3263 49.8376 28.0001 49.8376C30.6738 49.8376 33.2749 48.9669 35.4098 47.3573C37.5448 45.7476 39.0975 43.4865 39.8332 40.916C40.5688 38.3454 40.4475 35.6052 39.4874 33.1098C38.5273 30.6143 36.7807 28.4994 34.5118 27.0848V17.1846ZM28.0001 30.1723C26.5448 30.1723 25.1223 30.6038 23.9123 31.4123C22.7023 32.2208 21.7593 33.3699 21.2024 34.7143C20.6455 36.0588 20.4998 37.5382 20.7837 38.9655C21.0676 40.3927 21.7683 41.7038 22.7973 42.7328C23.8263 43.7618 25.1374 44.4625 26.5646 44.7464C27.9919 45.0303 29.4713 44.8846 30.8158 44.3277C32.1602 43.7708 33.3093 42.8278 34.1178 41.6178C34.9263 40.4078 35.3578 38.9853 35.3578 37.53C35.3579 36.5638 35.1676 35.607 34.7978 34.7143C34.4281 33.8216 33.8861 33.0105 33.2028 32.3272C32.5196 31.644 31.7085 31.102 30.8158 30.7323C29.9231 30.3625 28.9663 30.1722 28.0001 30.1723ZM28.7779 42.1356L28.7889 42.579C28.7927 42.7807 28.7165 42.9757 28.5769 43.1213C28.4373 43.267 28.2457 43.3514 28.0441 43.3562C27.8424 43.3609 27.647 43.2856 27.5008 43.1467C27.3545 43.0077 27.2692 42.8165 27.2635 42.6149L27.2526 42.1508C26.6001 41.9966 26.1306 41.638 25.6498 41.1845C25.5023 41.0457 25.4159 40.8539 25.4098 40.6514C25.4036 40.4489 25.4781 40.2523 25.6169 40.1048C25.7558 39.9572 25.9475 39.8709 26.15 39.8647C26.3525 39.8586 26.5491 39.9331 26.6966 40.0719C27.12 40.4715 27.3954 40.7007 28.0005 40.7007C28.6786 40.7007 29.4189 40.257 29.4189 39.5161C29.4189 38.7752 28.6784 38.3315 28.0005 38.3315C26.4808 38.3315 25.0509 37.2057 25.0509 35.6156C25.0509 34.3259 26.0122 33.3019 27.2243 32.9958L27.2119 32.4811C27.208 32.2793 27.2841 32.0842 27.4237 31.9385C27.5633 31.7928 27.7549 31.7083 27.9567 31.7036C28.1584 31.6988 28.3538 31.7741 28.5001 31.9131C28.6464 32.0521 28.7316 32.2434 28.7372 32.4451L28.7508 33.0138C29.4024 33.1869 30.2004 33.5771 30.5751 34.1473C30.6844 34.3162 30.7225 34.5216 30.681 34.7185C30.6395 34.9154 30.5219 35.0879 30.3537 35.1985C30.1855 35.309 29.9805 35.3485 29.7833 35.3085C29.5861 35.2684 29.4127 35.152 29.301 34.9847C29.1273 34.7204 28.5674 34.4274 28.0005 34.4274C27.3279 34.4274 26.5786 34.8739 26.5786 35.6151C26.5786 36.3563 27.3224 36.7996 28.0005 36.7996C29.5229 36.7996 30.9501 37.9277 30.9501 39.5155C30.9497 40.8037 29.9876 41.8293 28.7779 42.1356ZM28.0001 26.753C25.8686 26.753 23.7849 27.385 22.0126 28.5692C20.2403 29.7534 18.859 31.4365 18.0433 33.4058C17.2276 35.375 17.0141 37.5419 17.43 39.6325C17.8458 41.723 18.8722 43.6433 20.3794 45.1505C21.8866 46.6577 23.8069 47.6841 25.8974 48.1C27.988 48.5158 30.1549 48.3024 32.1241 47.4867C34.0934 46.671 35.7765 45.2897 36.9607 43.5174C38.1449 41.7452 38.777 39.6615 38.777 37.53C38.777 36.1148 38.4983 34.7134 37.9567 33.4058C37.4151 32.0983 36.6213 30.9103 35.6205 29.9095C34.6198 28.9088 33.4318 28.1149 32.1242 27.5733C30.8167 27.0317 29.4153 26.753 28.0001 26.753ZM28.0001 46.4186C26.2419 46.4186 24.5233 45.8973 23.0615 44.9206C21.5997 43.9438 20.4603 42.5555 19.7875 40.9313C19.1147 39.307 18.9386 37.5197 19.2816 35.7953C19.6246 34.071 20.4712 32.4871 21.7144 31.2439C22.9576 30.0007 24.5415 29.1541 26.2658 28.8112C27.9901 28.4682 29.7774 28.6442 31.4017 29.317C33.026 29.9898 34.4143 31.1292 35.391 32.591C36.3678 34.0528 36.8891 35.7715 36.8891 37.5296C36.8891 38.6969 36.6592 39.8529 36.2125 40.9314C35.7658 42.0099 35.1111 42.9898 34.2856 43.8153C33.4602 44.6408 32.4803 45.2956 31.4018 45.7423C30.3233 46.1891 29.1674 46.419 28.0001 46.419V46.4186ZM32.9807 26.2717V12.7335C32.9807 12.6465 33.0152 12.563 33.0768 12.5015C33.1383 12.44 33.2218 12.4054 33.3088 12.4054H37.2104C37.2751 12.4055 37.3383 12.3865 37.3922 12.3508C37.4461 12.315 37.4882 12.2642 37.5133 12.2046C37.5384 12.145 37.5453 12.0793 37.5332 12.0158C37.5211 11.9523 37.4905 11.8938 37.4452 11.8476L28.2349 2.41158C28.2044 2.38008 28.1679 2.35504 28.1276 2.33793C28.0872 2.32083 28.0439 2.31201 28.0001 2.31201C27.9562 2.31201 27.9129 2.32083 27.8725 2.33793C27.8322 2.35504 27.7957 2.38008 27.7652 2.41158L18.5548 11.8481C18.5095 11.8943 18.4789 11.9528 18.4668 12.0163C18.4547 12.0799 18.4616 12.1455 18.4867 12.2051C18.5118 12.2647 18.5539 12.3156 18.6078 12.3513C18.6617 12.387 18.7249 12.406 18.7896 12.4059H22.6914C22.7785 12.4059 22.8619 12.4405 22.9235 12.502C22.985 12.5636 23.0196 12.647 23.0196 12.7341V26.2722C24.5887 25.5795 26.285 25.2217 28.0002 25.2217C29.7154 25.2217 31.4117 25.5795 32.9808 26.2722L32.9807 26.2717Z" fill="#1D3376"/>
</g>
</g>
</svg>
