<svg width="56" height="57" viewBox="0 0 56 57" fill="none" xmlns="http://www.w3.org/2000/svg">
<g id="Frame">
<g id="Group">
<path id="Vector" fill-rule="evenodd" clip-rule="evenodd" d="M16.7693 9.27582L10.1654 14.0738V8.33158C10.1665 7.98788 10.3035 7.65858 10.5465 7.41554C10.7896 7.17249 11.1189 7.03544 11.4626 7.03429H15.4713C15.8151 7.03533 16.1446 7.17237 16.3877 7.4155C16.6308 7.65863 16.7679 7.98808 16.7689 8.33191L16.7693 9.27582ZM52.6641 21.1986L30.3188 4.9636C29.6628 4.46681 28.8645 4.19396 28.0417 4.18527C27.2188 4.17659 26.4149 4.43253 25.7486 4.91537L3.336 21.1986C2.92622 21.4936 2.57869 21.8666 2.31334 22.2963C2.04798 22.7259 1.87002 23.2036 1.78965 23.7022C1.70927 24.2007 1.72807 24.7102 1.84497 25.2014C1.96186 25.6926 2.17455 26.156 2.47084 26.5649C2.76714 26.9738 3.14121 27.3202 3.57162 27.5842C4.00204 27.8483 4.48033 28.0248 4.97909 28.1036C5.47785 28.1825 5.98727 28.1622 6.47816 28.0438C6.96904 27.9254 7.43174 27.7113 7.83974 27.4138L28.0001 12.7665L48.1602 27.4138C48.5683 27.7095 49.0306 27.922 49.5208 28.039C50.011 28.1561 50.5195 28.1754 51.0172 28.096C51.5149 28.0165 51.992 27.8398 52.4214 27.576C52.8508 27.3121 53.224 26.9663 53.5198 26.5582C53.8155 26.1501 54.028 25.6877 54.145 25.1975C54.2621 24.7073 54.2814 24.1988 54.202 23.7012C54.1225 23.2035 53.9458 22.7263 53.6819 22.2969C53.4181 21.8675 53.0722 21.4943 52.6641 21.1986ZM28.0001 14.9296L45.8348 27.8873V46.8378C45.8305 48.2919 45.2509 49.6852 44.2227 50.7134C43.1945 51.7416 41.8012 52.3211 40.3471 52.3254H15.653C14.199 52.3211 12.8056 51.7416 11.7774 50.7134C10.7492 49.6852 10.1696 48.2919 10.1654 46.8378V27.8873L28.0001 14.9296ZM22.4584 40.1331C22.458 39.9592 22.3888 39.7924 22.2658 39.6694C22.1428 39.5464 21.9761 39.4772 21.8021 39.4769H19.0302C18.8563 39.4772 18.6895 39.5464 18.5665 39.6694C18.4435 39.7924 18.3743 39.9592 18.374 40.1331V46.8193C18.3743 46.9933 18.4435 47.16 18.5665 47.283C18.6895 47.406 18.8563 47.4753 19.0302 47.4756H21.8021C21.9761 47.4753 22.1428 47.406 22.2658 47.283C22.3888 47.16 22.458 46.9933 22.4584 46.8193V40.1331ZM30.0423 35.8456C30.042 35.6717 29.9728 35.5049 29.8498 35.3819C29.7267 35.2589 29.56 35.1897 29.3861 35.1894H26.6142C26.4402 35.1897 26.2735 35.259 26.1505 35.382C26.0275 35.505 25.9583 35.6717 25.9579 35.8456V46.8189C25.9583 46.9928 26.0275 47.1596 26.1505 47.2826C26.2735 47.4055 26.4402 47.4748 26.6142 47.4751H29.3861C29.56 47.4748 29.7267 47.4056 29.8498 47.2826C29.9728 47.1596 30.042 46.9928 30.0423 46.8189V35.8456ZM37.6262 31.9893C37.6258 31.8153 37.5566 31.6486 37.4336 31.5256C37.3106 31.4026 37.1438 31.3334 36.9699 31.333H34.198C34.0241 31.3334 33.8573 31.4026 33.7343 31.5256C33.6113 31.6486 33.5421 31.8153 33.5418 31.9893V46.8189C33.5421 46.9928 33.6113 47.1596 33.7343 47.2826C33.8573 47.4056 34.0241 47.4748 34.198 47.4751H36.9699C37.1438 47.4748 37.3106 47.4055 37.4336 47.2826C37.5566 47.1596 37.6258 46.9928 37.6262 46.8189V31.9893ZM33.4881 23.798C33.4999 24.0291 33.603 24.2461 33.7748 24.4012C33.9466 24.5563 34.1729 24.6369 34.4041 24.6251L35.1995 24.582C30.0098 29.059 24.2229 32.7926 18.0048 35.6757C17.9009 35.724 17.8074 35.7923 17.7299 35.8768C17.6524 35.9612 17.5923 36.0601 17.5531 36.1678C17.5138 36.2756 17.4962 36.39 17.5013 36.5045C17.5063 36.619 17.5339 36.7314 17.5825 36.8353C17.631 36.9391 17.6996 37.0324 17.7842 37.1097C17.8689 37.187 17.9679 37.2469 18.0758 37.2858C18.1836 37.3248 18.298 37.3421 18.4125 37.3368C18.527 37.3315 18.6394 37.3036 18.7431 37.2548C25.1436 34.2658 31.0806 30.4779 36.4137 25.8408L36.29 26.6903C36.2598 26.9185 36.3208 27.1495 36.4599 27.3329C36.599 27.5163 36.8049 27.6375 37.0329 27.6699C37.2608 27.7023 37.4923 27.6435 37.6771 27.5061C37.8618 27.3687 37.9849 27.164 38.0195 26.9364L38.4898 23.6989C38.5076 23.5715 38.4972 23.4417 38.4591 23.3188C38.421 23.1958 38.3562 23.0829 38.2695 22.9879C38.1827 22.8929 38.076 22.8182 37.957 22.7692C37.838 22.7202 37.7097 22.698 37.5812 22.7043L34.3148 22.8816C34.0837 22.8935 33.8667 22.9968 33.7117 23.1686C33.5567 23.3404 33.4762 23.5668 33.4881 23.798Z" fill="#1D3376"/>
</g>
</g>
</svg>
