<svg width="32" height="32" viewBox="0 0 32 32" fill="none" xmlns="http://www.w3.org/2000/svg">
<circle cx="15.9563" cy="15.9563" r="15.6332" stroke="white" stroke-width="0.646201"/>
<path fill-rule="evenodd" clip-rule="evenodd" d="M13.3538 9.68107C14.027 9.65008 14.2417 9.64319 15.9565 9.64319C17.6713 9.64319 17.8859 9.65065 18.5586 9.68107C19.2312 9.71148 19.6903 9.8188 20.092 9.97433C20.5127 10.1333 20.8943 10.3818 21.21 10.7032C21.5314 11.0183 21.7793 11.3993 21.9377 11.8206C22.0938 12.2223 22.2005 12.6814 22.2315 13.3529C22.2625 14.0272 22.2694 14.2419 22.2694 15.9561C22.2694 17.6709 22.2619 17.8856 22.2315 18.5588C22.2011 19.2302 22.0938 19.6894 21.9377 20.0911C21.7793 20.5124 21.531 20.8941 21.21 21.2096C20.8943 21.531 20.5127 21.7789 20.092 21.9373C19.6903 22.0934 19.2312 22.2002 18.5597 22.2312C17.8859 22.2622 17.6713 22.269 15.9565 22.269C14.2417 22.269 14.027 22.2616 13.3538 22.2312C12.6824 22.2007 12.2232 22.0934 11.8215 21.9373C11.4002 21.7789 11.0185 21.5306 10.703 21.2096C10.3818 20.8944 10.1333 20.5128 9.9747 20.0917C9.81917 19.6899 9.71242 19.2308 9.68143 18.5593C9.65044 17.885 9.64355 17.6704 9.64355 15.9561C9.64355 14.2413 9.65102 14.0267 9.68143 13.354C9.71185 12.6814 9.81917 12.2223 9.9747 11.8206C10.1335 11.3994 10.3822 11.0179 10.7036 10.7026C11.0186 10.3815 11.4 10.133 11.8209 9.97433C12.2227 9.8188 12.6818 9.71206 13.3533 9.68107H13.3538ZM18.5075 10.8174C17.8418 10.787 17.642 10.7807 15.9565 10.7807C14.2709 10.7807 14.0712 10.787 13.4055 10.8174C12.7897 10.8455 12.4557 10.9482 12.233 11.0349C11.9386 11.1497 11.728 11.2857 11.507 11.5066C11.2976 11.7104 11.1364 11.9585 11.0353 12.2326C10.9486 12.4553 10.8459 12.7893 10.8178 13.4051C10.7873 14.0708 10.781 14.2706 10.781 15.9561C10.781 17.6417 10.7873 17.8414 10.8178 18.5071C10.8459 19.1229 10.9486 19.4569 11.0353 19.6796C11.1363 19.9533 11.2975 20.2018 11.507 20.4056C11.7108 20.6151 11.9593 20.7763 12.233 20.8773C12.4557 20.964 12.7897 21.0667 13.4055 21.0948C14.0712 21.1253 14.2704 21.1316 15.9565 21.1316C17.6426 21.1316 17.8418 21.1253 18.5075 21.0948C19.1233 21.0667 19.4573 20.964 19.68 20.8773C19.9744 20.7625 20.185 20.6265 20.4059 20.4056C20.6154 20.2018 20.7767 19.9533 20.8777 19.6796C20.9644 19.4569 21.0671 19.1229 21.0952 18.5071C21.1256 17.8414 21.1319 17.6417 21.1319 15.9561C21.1319 14.2706 21.1256 14.0708 21.0952 13.4051C21.0671 12.7893 20.9644 12.4553 20.8777 12.2326C20.7629 11.9382 20.6269 11.7276 20.4059 11.5066C20.2022 11.2972 19.9541 11.136 19.68 11.0349C19.4573 10.9482 19.1233 10.8455 18.5075 10.8174ZM15.1501 17.9022C15.6005 18.0897 16.1019 18.115 16.5688 17.9738C17.0357 17.8326 17.4391 17.5337 17.7101 17.1282C17.9811 16.7226 18.1029 16.2355 18.0547 15.7501C18.0065 15.2648 17.7913 14.8112 17.4458 14.4668C17.2255 14.2467 16.9592 14.0782 16.666 13.9734C16.3728 13.8685 16.06 13.83 15.7502 13.8606C15.4403 13.8911 15.1411 13.99 14.874 14.1501C14.6069 14.3102 14.3787 14.5275 14.2057 14.7864C14.0327 15.0453 13.9192 15.3393 13.8735 15.6473C13.8278 15.9553 13.8509 16.2696 13.9412 16.5676C14.0316 16.8656 14.1868 17.1399 14.3959 17.3706C14.6049 17.6014 14.8625 17.783 15.1501 17.9022ZM13.662 13.6617C13.9633 13.3603 14.321 13.1213 14.7147 12.9583C15.1084 12.7952 15.5304 12.7113 15.9565 12.7113C16.3826 12.7113 16.8046 12.7952 17.1982 12.9583C17.5919 13.1213 17.9496 13.3603 18.2509 13.6617C18.5523 13.963 18.7913 14.3207 18.9543 14.7144C19.1174 15.108 19.2013 15.53 19.2013 15.9561C19.2013 16.3822 19.1174 16.8042 18.9543 17.1979C18.7913 17.5916 18.5523 17.9493 18.2509 18.2506C17.6424 18.8591 16.8171 19.201 15.9565 19.201C15.0959 19.201 14.2705 18.8591 13.662 18.2506C13.0535 17.642 12.7116 16.8167 12.7116 15.9561C12.7116 15.0955 13.0535 14.2702 13.662 13.6617ZM19.921 13.1945C19.9957 13.1241 20.0554 13.0394 20.0968 12.9454C20.1381 12.8515 20.1602 12.7502 20.1617 12.6475C20.1632 12.5449 20.1441 12.443 20.1055 12.3479C20.0669 12.2528 20.0096 12.1664 19.937 12.0938C19.8645 12.0212 19.7781 11.9639 19.6829 11.9253C19.5878 11.8867 19.4859 11.8676 19.3833 11.8691C19.2807 11.8706 19.1794 11.8927 19.0854 11.934C18.9915 11.9754 18.9068 12.0352 18.8363 12.1098C18.6993 12.255 18.6243 12.4479 18.6273 12.6475C18.6302 12.8471 18.7108 13.0378 18.8519 13.1789C18.9931 13.3201 19.1837 13.4007 19.3833 13.4036C19.5829 13.4065 19.7758 13.3315 19.921 13.1945Z" fill="white"/>
</svg>
