<svg width="56" height="57" viewBox="0 0 56 57" fill="none" xmlns="http://www.w3.org/2000/svg">
<g id="Frame" clip-path="url(#clip0_810_1661)">
<g id="Group">
<path id="Vector" d="M44.395 11.1546L55.0393 11.1285L44.395 0.510254V11.1546Z" fill="#1D3376"/>
<path id="Vector_2" d="M41.114 14.4359V0.510254H11.692V23.1761L24.0285 27.909H38.8527V31.1903H25.7046V34.745H33.3839V38.0262H25.7046V39.8903C25.7046 40.4571 25.6651 41.0219 25.589 41.5809H38.8528V44.8621H24.6761C24.4918 45.2913 24.2836 45.7098 24.0525 46.1157C22.9691 48.0113 21.4108 49.5922 19.531 50.7028L13.3598 54.3452L11.6919 55.3295V56.5103H55.0394V14.4359H41.114ZM42.3528 21.0731H45.634V24.3543H42.3528V21.0731ZM42.3528 27.909H45.634V31.1903H42.3528V27.909ZM42.3528 34.745H45.634V38.0262H42.3528V34.745ZM42.3528 41.5809H45.634V44.8621H42.3528V41.5809ZM24.3423 11.1546V14.4359H21.0611V11.1546H24.3423ZM33.3839 24.3543H21.0611V21.0731H33.3839V24.3543Z" fill="#1D3376"/>
<path id="Vector_3" d="M17.863 47.877C19.252 47.0572 20.4032 45.8894 21.2029 44.4887C22.0026 43.0881 22.4232 41.5031 22.4232 39.8902V30.8075L11.6918 26.6904L0.960449 30.8076V39.8904C0.960453 41.5032 1.38107 43.0882 2.18079 44.4888C2.9805 45.8895 4.13166 47.0573 5.52062 47.8771L11.6918 51.5195L17.863 47.877ZM10.9428 43.8188L5.97059 39.241L8.19309 36.8271L10.7235 39.1568L15.0823 34.3123L17.5216 36.5069L10.9428 43.8188Z" fill="#1D3376"/>
</g>
</g>
<defs>
<clipPath id="clip0_810_1661">
<rect width="56" height="56" fill="white" transform="translate(0 0.510254)"/>
</clipPath>
</defs>
</svg>
