<svg width="40" height="40" viewBox="0 0 40 40" fill="none" xmlns="http://www.w3.org/2000/svg">
<path d="M0.450684 19.5378C0.450684 30.29 9.19857 39.0378 19.9507 39.0378C30.7028 39.0378 39.4507 30.29 39.4507 19.5378C39.4507 8.78573 30.7028 0.0378422 19.9507 0.037842C9.19857 0.0378419 0.450684 8.78572 0.450684 19.5378ZM37.0132 19.5378C37.0132 28.9463 29.3591 36.6003 19.9507 36.6003C10.5422 36.6003 2.88818 28.9463 2.88818 19.5378C2.88818 10.1294 10.5422 2.47534 19.9507 2.47534C29.3591 2.47534 37.0132 10.1294 37.0132 19.5378ZM17.8703 12.5824C17.9834 12.4692 18.1177 12.3794 18.2656 12.3181C18.4134 12.2568 18.5719 12.2252 18.7319 12.2252C18.892 12.2252 19.0505 12.2568 19.1983 12.3181C19.3462 12.3794 19.4805 12.4692 19.5936 12.5824C19.8316 12.8204 19.9507 13.1324 19.9507 13.4441C19.9507 13.7558 19.8316 14.0678 19.5936 14.3057L15.5802 18.3191L27.2632 18.3191C27.9368 18.3191 28.4819 18.8648 28.4819 19.5378C28.4819 20.2109 27.9368 20.7566 27.2632 20.7566L15.5802 20.7566L19.5936 24.7699C20.0698 25.2462 20.0698 26.0173 19.5936 26.4932C19.1174 26.9692 18.3462 26.9695 17.8703 26.4932L11.7765 20.3995C11.6633 20.2864 11.5735 20.1521 11.5122 20.0042C11.4509 19.8564 11.4193 19.6979 11.4193 19.5378C11.4193 19.3778 11.4509 19.2193 11.5122 19.0715C11.5735 18.9236 11.6633 18.7893 11.7765 18.6762L17.8703 12.5824Z" fill="#1D3376"/>
</svg>
