<svg width="40" height="40" viewBox="0 0 40 40" fill="none" xmlns="http://www.w3.org/2000/svg">
<path d="M0.765626 19.6554C0.765626 15.7755 1.91615 11.9827 4.07172 8.75668C6.22728 5.53065 9.29107 3.01626 12.8756 1.53149C16.4602 0.0467072 20.4046 -0.341779 24.2099 0.415154C28.0153 1.17209 31.5107 3.04044 34.2542 5.78395C36.9978 8.52747 38.8661 12.0229 39.6231 15.8283C40.38 19.6336 39.9915 23.578 38.5067 27.1626C37.0219 30.7471 34.5076 33.8109 31.2815 35.9665C28.0555 38.1221 24.2627 39.2726 20.3828 39.2726C15.1815 39.2677 10.1947 37.1993 6.51678 33.5214C2.8389 29.8436 0.770526 24.8567 0.765626 19.6554ZM37.7792 19.6554C37.7792 16.2147 36.7589 12.8513 34.8474 9.99049C32.9358 7.12967 30.2189 4.89994 27.0401 3.58325C23.8613 2.26656 20.3635 1.92205 16.9889 2.5933C13.6144 3.26454 10.5146 4.92138 8.08172 7.35431C5.64879 9.78723 3.99195 12.887 3.32071 16.2615C2.64946 19.6361 2.99397 23.1339 4.31066 26.3127C5.62735 29.4915 7.85709 32.2084 10.7179 34.1199C13.5787 36.0315 16.9421 37.0518 20.3828 37.0518C24.9951 37.0469 29.4171 35.2125 32.6785 31.9511C35.9399 28.6897 37.7743 24.2677 37.7792 19.6554ZM22.9738 27.1506C23.0783 27.2527 23.2018 27.3332 23.3375 27.3875C23.4731 27.4418 23.6181 27.4689 23.7641 27.4672C23.9102 27.4655 24.0545 27.435 24.1888 27.3775C24.3231 27.32 24.4448 27.2366 24.5468 27.1321C24.6489 27.0276 24.7294 26.904 24.7837 26.7684C24.838 26.6328 24.8651 26.4878 24.8634 26.3418C24.8617 26.1957 24.8312 26.0514 24.7737 25.9171C24.7162 25.7828 24.6328 25.6611 24.5283 25.5591L18.5321 19.6554L24.5653 13.7332C24.7055 13.6411 24.823 13.5184 24.9089 13.3744C24.9948 13.2303 25.047 13.0687 25.0616 12.9016C25.0761 12.7345 25.0526 12.5663 24.9928 12.4096C24.933 12.2529 24.8385 12.1117 24.7164 11.9968C24.5942 11.8818 24.4477 11.796 24.2876 11.7458C24.1276 11.6957 23.9582 11.6824 23.7923 11.707C23.6264 11.7316 23.4682 11.7935 23.3297 11.888C23.1911 11.9825 23.0757 12.1072 22.9923 12.2527L16.2003 19.0447C16.0335 19.2099 15.9233 19.4237 15.8857 19.6554C15.8867 19.8006 15.9167 19.9441 15.9739 20.0776C16.0311 20.2111 16.1144 20.3318 16.2188 20.4327L22.9738 27.1506Z" fill="#1D3376"/>
</svg>
