<svg width="56" height="56" viewBox="0 0 56 56" fill="none" xmlns="http://www.w3.org/2000/svg">
<g id="Frame">
<g id="Group">
<path id="Vector" d="M20.0854 48.5431C20.0873 49.5919 20.5047 50.5973 21.2464 51.3389C21.988 52.0805 22.9933 52.498 24.0422 52.4998H48.5159C49.5649 52.4982 50.5705 52.0808 51.3123 51.3392C52.0541 50.5975 52.4717 49.5921 52.4735 48.5431V33.9945H20.0854V48.5431ZM45.3825 39.3083H47.6584C48.8082 39.3302 48.809 41.0373 47.6584 41.0583H45.3834C44.2337 41.0373 44.2319 39.3302 45.3825 39.3083ZM45.3825 45.436H47.6584C48.8082 45.4578 48.809 47.1641 47.6584 47.186H45.3834C44.2337 47.165 44.2319 45.4578 45.3825 45.436ZM38.5549 39.3083H40.8308C41.9805 39.3302 41.9814 41.0373 40.8308 41.0583H38.5558C37.406 41.0373 37.4043 39.3302 38.5549 39.3083ZM38.5549 45.436H40.8308C41.9805 45.4578 41.9814 47.1641 40.8308 47.186H38.5558C37.406 47.165 37.4043 45.4578 38.5549 45.436ZM31.7273 39.3083H34.0032C35.1529 39.3302 35.1538 41.0373 34.0032 41.0583H31.7282C30.5784 41.0373 30.5775 39.3302 31.7282 39.3083H31.7273ZM31.7273 45.436H34.0032C35.1529 45.4578 35.1538 47.1641 34.0032 47.186H31.7282C30.5784 47.165 30.5775 45.4578 31.7282 45.436H31.7273ZM24.8997 39.3083H27.1755C28.3253 39.3302 28.3262 41.0373 27.1755 41.0583H24.8997C23.7508 41.0373 23.749 39.3302 24.8997 39.3083ZM24.8997 45.436H27.1755C28.3253 45.4578 28.3262 47.1641 27.1755 47.186H24.8997C23.7508 47.165 23.749 45.4578 24.8997 45.436ZM48.5168 26.0731H46.3022V24.6381C46.1692 20.425 40.0608 20.4267 39.9295 24.6381V28.2868C39.9059 29.4383 38.1953 29.4383 38.1795 28.2868V26.0731H32.6285V24.6381C32.4999 20.4285 26.3845 20.425 26.2559 24.6381V28.2868C26.2559 28.769 25.8622 29.1627 25.3809 29.1627C24.8988 29.1627 24.505 28.769 24.505 28.2877V26.0731C22.1732 25.8648 20.0705 27.6542 20.0845 30.0386V32.2436H52.4735V30.0386C52.4735 28.9884 52.057 27.9811 51.3152 27.2376C50.5734 26.4942 49.567 26.0754 48.5168 26.0731ZM30.8785 26.0731H28.0068V24.6381C28.0068 23.841 28.6455 23.2022 29.4427 23.2022C30.2389 23.2022 30.8777 23.841 30.8777 24.6372V26.0722L30.8785 26.0731ZM44.5513 26.0731H41.6804V24.6381C41.6962 24.268 41.8544 23.9183 42.1219 23.6621C42.3893 23.4058 42.7454 23.2627 43.1159 23.2627C43.4863 23.2627 43.8424 23.4058 44.1098 23.6621C44.3773 23.9183 44.5355 24.268 44.5513 24.6381V26.0731ZM32.3398 13.3025H43.1329V15.7533C43.1329 16.0858 43.3167 16.3833 43.6142 16.5321C43.7595 16.6062 43.9227 16.6381 44.0852 16.6241C44.2478 16.6102 44.4032 16.551 44.5338 16.4533L52.1227 10.7641C52.5829 10.4307 52.5847 9.69658 52.1227 9.36408L44.5338 3.67308C44.4032 3.57563 44.248 3.51662 44.0856 3.50271C43.9233 3.48879 43.7603 3.52053 43.615 3.59433C43.3175 3.74308 43.1338 4.04058 43.1338 4.37308V6.82483H32.3398C31.8585 6.82483 31.4648 7.21858 31.4648 7.69983V12.4266C31.4648 12.9078 31.8585 13.3016 32.3398 13.3016V13.3025Z" fill="#1D3376"/>
<path id="Vector_2" d="M24.5147 24.3405C24.6617 21.313 27.7347 19.059 30.6773 19.8675C28.7514 14.4223 23.5513 10.5015 17.4595 10.5015C-1.11934 11.2732 -1.11671 37.742 17.4595 38.5128C17.757 38.5128 18.0458 38.5041 18.3345 38.4866V30.0472C18.3197 26.7047 21.2063 24.1112 24.5147 24.3396V24.3405ZM18.3345 24.5067C18.3345 24.988 17.9408 25.3817 17.4595 25.3817H11.331C10.8498 25.3817 10.456 24.988 10.456 24.5067C10.456 24.0255 10.8498 23.6317 11.331 23.6317H16.5828V15.7532C16.6029 14.607 18.3118 14.6008 18.3337 15.7532V24.5067H18.3345Z" fill="#1D3376"/>
</g>
</g>
</svg>
