<svg width="26" height="26" viewBox="0 0 26 26" fill="none" xmlns="http://www.w3.org/2000/svg">
<g id="Group 1261154853">
<g id="Group 1261154846">
<rect id="Rectangle 3947" width="26" height="26" rx="4" fill="white"/>
</g>
<g id="Group">
<path id="Vector" fill-rule="evenodd" clip-rule="evenodd" d="M3.4668 8.2C3.4668 7.88174 3.57569 7.57652 3.76951 7.35147C3.96334 7.12643 4.22623 7 4.50034 7H21.037C21.3111 7 21.574 7.12643 21.7678 7.35147C21.9616 7.57652 22.0705 7.88174 22.0705 8.2C22.0705 8.51826 21.9616 8.82348 21.7678 9.04853C21.574 9.27357 21.3111 9.4 21.037 9.4H4.50034C4.22623 9.4 3.96334 9.27357 3.76951 9.04853C3.57569 8.82348 3.4668 8.51826 3.4668 8.2ZM3.4668 13C3.4668 12.6817 3.57569 12.3765 3.76951 12.1515C3.96334 11.9264 4.22623 11.8 4.50034 11.8H21.037C21.3111 11.8 21.574 11.9264 21.7678 12.1515C21.9616 12.3765 22.0705 12.6817 22.0705 13C22.0705 13.3183 21.9616 13.6235 21.7678 13.8485C21.574 14.0736 21.3111 14.2 21.037 14.2H4.50034C4.22623 14.2 3.96334 14.0736 3.76951 13.8485C3.57569 13.6235 3.4668 13.3183 3.4668 13ZM3.4668 17.8C3.4668 17.4817 3.57569 17.1765 3.76951 16.9515C3.96334 16.7264 4.22623 16.6 4.50034 16.6H12.7687C13.0428 16.6 13.3057 16.7264 13.4995 16.9515C13.6933 17.1765 13.8022 17.4817 13.8022 17.8C13.8022 18.1183 13.6933 18.4235 13.4995 18.6485C13.3057 18.8736 13.0428 19 12.7687 19H4.50034C4.22623 19 3.96334 18.8736 3.76951 18.6485C3.57569 18.4235 3.4668 18.1183 3.4668 17.8Z" fill="#1D3376"/>
</g>
</g>
</svg>
