<svg width="57" height="57" viewBox="0 0 57 57" fill="none" xmlns="http://www.w3.org/2000/svg">
<g id="Frame" clip-path="url(#clip0_810_1616)">
<g id="Group">
<path id="Vector" d="M50.4303 19.8722H7.91892L7.09274 26.262L7.07845 26.3838H51.4817L50.4303 19.8722ZM16.462 25.4258L15.0734 25.4143L15.5537 20.9346L16.9428 20.9521L16.462 25.4258ZM29.3449 25.1654H27.9517V20.7794H29.3449V25.1654ZM40.3634 25.524L39.8806 21.0527L41.2697 21.0365L41.7516 25.5152L40.3634 25.524ZM49.2711 12.6812H8.84593L8.11259 18.3542L8.0983 18.4761H50.2052L49.2711 12.6812ZM17.2188 17.7862L15.8296 17.7747L16.3096 13.2978L17.6992 13.3126L17.2188 17.7862ZM29.3449 17.7835H27.9517V13.3979H29.3449V17.7835ZM39.6055 17.8864L39.1256 13.414L40.5156 13.397L40.9956 17.8766L39.6055 17.8864ZM6.89707 27.778L6.1808 33.3228L6.1665 33.4465H52.6196L51.7069 27.779H6.89707V27.778ZM15.5884 32.8614L14.2003 32.852L14.6793 28.3724L16.0697 28.3876L15.5884 32.8614ZM29.3449 33.0727H27.9517V28.6844H29.3449V33.0727ZM41.2367 32.9637L40.7557 28.4906L42.1448 28.4744L42.6257 32.9518L41.2367 32.9637Z" fill="#1D3376"/>
<path id="Vector_2" d="M29.5152 37.0626H56.9512L52.7802 8.89502H5.12309L0.951172 37.0626H27.5547V46.1521L17.3728 46.1549V48.0885L39.5494 48.1108V46.1523H29.5152V37.0626ZM2.45012 35.7686L2.46719 35.6541L6.24131 10.1871H51.6618L55.4553 35.7684L2.45012 35.7686Z" fill="#1D3376"/>
</g>
</g>
<defs>
<clipPath id="clip0_810_1616">
<rect width="56" height="56" fill="white" transform="translate(0.951172 0.50293)"/>
</clipPath>
</defs>
</svg>
