<svg width="40" height="40" viewBox="0 0 40 40" fill="none" xmlns="http://www.w3.org/2000/svg">
<path d="M39.4502 19.5378C39.4502 8.78572 30.7023 0.0378414 19.9502 0.0378409C9.19808 0.0378405 0.450195 8.78572 0.450194 19.5378C0.450194 30.29 9.19808 39.0378 19.9502 39.0378C30.7023 39.0378 39.4502 30.29 39.4502 19.5378ZM2.88769 19.5378C2.88769 10.1294 10.5417 2.47534 19.9502 2.47534C29.3586 2.47534 37.0127 10.1294 37.0127 19.5378C37.0127 28.9463 29.3586 36.6003 19.9502 36.6003C10.5417 36.6003 2.88769 28.9463 2.88769 19.5378ZM22.0306 26.4932C21.9175 26.6065 21.7832 26.6963 21.6353 26.7576C21.4875 26.8189 21.329 26.8505 21.1689 26.8505C21.0089 26.8505 20.8504 26.8189 20.7026 26.7576C20.5547 26.6963 20.4204 26.6065 20.3073 26.4932C20.0693 26.2553 19.9502 25.9433 19.9502 25.6316C19.9502 25.3199 20.0693 25.0079 20.3073 24.7699L24.3206 20.7566L12.6377 20.7566C11.964 20.7566 11.4189 20.2109 11.4189 19.5378C11.4189 18.8648 11.964 18.3191 12.6377 18.3191L24.3206 18.3191L20.3073 14.3057C19.8311 13.8295 19.8311 13.0584 20.3073 12.5824C20.7835 12.1065 21.5547 12.1062 22.0306 12.5824L28.1244 18.6762C28.2376 18.7893 28.3274 18.9236 28.3887 19.0715C28.45 19.2193 28.4816 19.3778 28.4816 19.5378C28.4816 19.6979 28.45 19.8564 28.3887 20.0042C28.3274 20.1521 28.2376 20.2864 28.1244 20.3995L22.0306 26.4932Z" fill="#1D3376"/>
</svg>
