<svg width="40" height="40" viewBox="0 0 40 40" fill="none" xmlns="http://www.w3.org/2000/svg">
<path d="M39.2344 19.6554C39.2344 15.7755 38.0838 11.9827 35.9283 8.75668C33.7727 5.53065 30.7089 3.01626 27.1244 1.53149C23.5398 0.0467072 19.5954 -0.341779 15.7901 0.415154C11.9847 1.17209 8.48926 3.04044 5.74575 5.78395C3.00224 8.52747 1.13388 12.0229 0.376949 15.8283C-0.379983 19.6336 0.00850193 23.578 1.49328 27.1626C2.97806 30.7471 5.49244 33.8109 8.71847 35.9665C11.9445 38.1221 15.7373 39.2726 19.6172 39.2726C24.8185 39.2677 29.8053 37.1993 33.4832 33.5214C37.1611 29.8436 39.2295 24.8567 39.2344 19.6554ZM2.22082 19.6554C2.22082 16.2147 3.2411 12.8513 5.15264 9.99049C7.06418 7.12967 9.78112 4.89994 12.9599 3.58325C16.1387 2.26656 19.6365 1.92205 23.0111 2.5933C26.3856 3.26454 29.4854 4.92138 31.9183 7.35431C34.3512 9.78723 36.0081 12.887 36.6793 16.2615C37.3505 19.6361 37.006 23.1339 35.6893 26.3127C34.3727 29.4915 32.1429 32.2084 29.2821 34.1199C26.4213 36.0315 23.0579 37.0518 19.6172 37.0518C15.0049 37.0469 10.5829 35.2125 7.32151 31.9511C4.06012 28.6897 2.22572 24.2677 2.22082 19.6554ZM17.0262 27.1506C16.9217 27.2527 16.7982 27.3332 16.6625 27.3875C16.5269 27.4418 16.3819 27.4689 16.2359 27.4672C16.0898 27.4655 15.9455 27.435 15.8112 27.3775C15.6769 27.32 15.5552 27.2366 15.4532 27.1321C15.3511 27.0276 15.2706 26.904 15.2163 26.7684C15.162 26.6328 15.1349 26.4878 15.1366 26.3418C15.1383 26.1957 15.1688 26.0514 15.2263 25.9171C15.2838 25.7828 15.3672 25.6611 15.4717 25.5591L21.4679 19.6554L15.4347 13.7332C15.2945 13.6411 15.177 13.5184 15.0911 13.3744C15.0052 13.2303 14.953 13.0687 14.9384 12.9016C14.9239 12.7345 14.9474 12.5663 15.0072 12.4096C15.067 12.2529 15.1615 12.1117 15.2836 11.9968C15.4058 11.8818 15.5523 11.796 15.7124 11.7458C15.8724 11.6957 16.0418 11.6824 16.2077 11.707C16.3736 11.7316 16.5318 11.7935 16.6703 11.888C16.8089 11.9825 16.9243 12.1072 17.0077 12.2527L23.7997 19.0447C23.9665 19.2099 24.0767 19.4237 24.1143 19.6554C24.1133 19.8006 24.0833 19.9441 24.0261 20.0776C23.9689 20.2111 23.8856 20.3318 23.7812 20.4327L17.0262 27.1506Z" fill="#1D3376"/>
</svg>
