<svg width="56" height="57" viewBox="0 0 56 57" fill="none" xmlns="http://www.w3.org/2000/svg">
<g id="Frame">
<g id="Group">
<g id="29-Tax">
<path id="Vector" d="M43.75 14.0554H51.4675L42 4.58789V12.3054C42 12.7695 42.1844 13.2146 42.5126 13.5428C42.8408 13.871 43.2859 14.0554 43.75 14.0554Z" fill="#1D3376"/>
<path id="Vector_2" d="M43.75 17.5554C42.3576 17.5554 41.0223 17.0023 40.0377 16.0177C39.0531 15.0332 38.5 13.6978 38.5 12.3054V3.55542H19.25C17.8576 3.55542 16.5223 4.10854 15.5377 5.09311C14.5531 6.07768 14 7.41303 14 8.80542V21.4054C17.8951 20.6088 21.9454 21.1622 25.484 22.9746C29.0227 24.787 31.8387 27.7502 33.4685 31.3766C35.0983 35.0029 35.4448 39.0761 34.4508 42.9256C33.4569 46.7751 31.1817 50.1715 28 52.5554H47.25C48.6424 52.5554 49.9777 52.0023 50.9623 51.0177C51.9469 50.0332 52.5 48.6978 52.5 47.3054V17.5554H43.75ZM33.25 17.5554H22.75C22.2859 17.5554 21.8408 17.371 21.5126 17.0429C21.1844 16.7147 21 16.2695 21 15.8054C21 15.3413 21.1844 14.8962 21.5126 14.568C21.8408 14.2398 22.2859 14.0554 22.75 14.0554H33.25C33.7141 14.0554 34.1593 14.2398 34.4874 14.568C34.8156 14.8962 35 15.3413 35 15.8054C35 16.2695 34.8156 16.7147 34.4874 17.0429C34.1593 17.371 33.7141 17.5554 33.25 17.5554ZM43.75 43.8054H40.25C39.7859 43.8054 39.3407 43.621 39.0126 43.2929C38.6844 42.9647 38.5 42.5196 38.5 42.0554C38.5 41.5913 38.6844 41.1462 39.0126 40.818C39.3407 40.4898 39.7859 40.3054 40.25 40.3054H43.75C44.2141 40.3054 44.6593 40.4898 44.9874 40.818C45.3156 41.1462 45.5 41.5913 45.5 42.0554C45.5 42.5196 45.3156 42.9647 44.9874 43.2929C44.6593 43.621 44.2141 43.8054 43.75 43.8054ZM43.75 35.0554H40.25C39.7859 35.0554 39.3407 34.871 39.0126 34.5429C38.6844 34.2147 38.5 33.7695 38.5 33.3054C38.5 32.8413 38.6844 32.3962 39.0126 32.068C39.3407 31.7398 39.7859 31.5554 40.25 31.5554H43.75C44.2141 31.5554 44.6593 31.7398 44.9874 32.068C45.3156 32.3962 45.5 32.8413 45.5 33.3054C45.5 33.7695 45.3156 34.2147 44.9874 34.5429C44.6593 34.871 44.2141 35.0554 43.75 35.0554ZM43.75 26.3054H36.75C36.2859 26.3054 35.8407 26.121 35.5126 25.7929C35.1844 25.4647 35 25.0195 35 24.5554C35 24.0913 35.1844 23.6462 35.5126 23.318C35.8407 22.9898 36.2859 22.8054 36.75 22.8054H43.75C44.2141 22.8054 44.6593 22.9898 44.9874 23.318C45.3156 23.6462 45.5 24.0913 45.5 24.5554C45.5 25.0195 45.3156 25.4647 44.9874 25.7929C44.6593 26.121 44.2141 26.3054 43.75 26.3054Z" fill="#1D3376"/>
<path id="Vector_3" d="M17.5 24.5554C14.7311 24.5554 12.0243 25.3765 9.72202 26.9148C7.41973 28.4532 5.62532 30.6397 4.56569 33.1979C3.50607 35.756 3.22882 38.5709 3.76901 41.2867C4.30921 44.0024 5.64258 46.497 7.60051 48.4549C9.55845 50.4129 12.053 51.7462 14.7687 52.2864C17.4845 52.8266 20.2994 52.5494 22.8576 51.4897C25.4157 50.4301 27.6022 48.6357 29.1406 46.3334C30.6789 44.0311 31.5 41.3244 31.5 38.5554C31.5 34.8424 30.025 31.2814 27.3995 28.6559C24.774 26.0304 21.213 24.5554 17.5 24.5554ZM14 33.3054C14.3461 33.3054 14.6845 33.4081 14.9723 33.6003C15.26 33.7926 15.4843 34.066 15.6168 34.3857C15.7492 34.7055 15.7839 35.0574 15.7164 35.3968C15.6489 35.7363 15.4822 36.0481 15.2374 36.2929C14.9927 36.5376 14.6809 36.7043 14.3414 36.7718C14.0019 36.8393 13.6501 36.8047 13.3303 36.6722C13.0105 36.5398 12.7372 36.3155 12.5449 36.0277C12.3526 35.7399 12.25 35.4015 12.25 35.0554C12.25 34.5913 12.4344 34.1462 12.7626 33.818C13.0908 33.4898 13.5359 33.3054 14 33.3054ZM21 43.8054C20.6539 43.8054 20.3155 43.7028 20.0278 43.5105C19.74 43.3182 19.5157 43.0449 19.3832 42.7251C19.2508 42.4053 19.2161 42.0535 19.2836 41.714C19.3512 41.3745 19.5178 41.0627 19.7626 40.818C20.0073 40.5732 20.3191 40.4066 20.6586 40.339C20.9981 40.2715 21.3499 40.3062 21.6697 40.4386C21.9895 40.5711 22.2628 40.7954 22.4551 41.0832C22.6474 41.371 22.75 41.7093 22.75 42.0554C22.75 42.5195 22.5656 42.9647 22.2374 43.2929C21.9093 43.621 21.4641 43.8054 21 43.8054ZM22.2425 36.2979L15.2425 43.2979C15.0798 43.4619 14.8863 43.5921 14.673 43.681C14.4598 43.7698 14.231 43.8156 14 43.8156C13.769 43.8156 13.5403 43.7698 13.327 43.681C13.1137 43.5921 12.9202 43.4619 12.7575 43.2979C12.5935 43.1352 12.4633 42.9417 12.3744 42.7284C12.2856 42.5152 12.2399 42.2864 12.2399 42.0554C12.2399 41.8244 12.2856 41.5957 12.3744 41.3824C12.4633 41.1692 12.5935 40.9756 12.7575 40.8129L19.7575 33.8129C20.087 33.4834 20.534 33.2983 21 33.2983C21.466 33.2983 21.913 33.4834 22.2425 33.8129C22.572 34.1425 22.7572 34.5894 22.7572 35.0554C22.7572 35.5214 22.572 35.9684 22.2425 36.2979Z" fill="#1D3376"/>
</g>
</g>
</g>
</svg>
